<svg width="150" height="30" viewBox="0 0 150 30" fill="none" xmlns="http://www.w3.org/2000/svg">
<path d="M8.02668 30C6.49779 30 5.24116 29.8021 4.25681 29.4062C3.27245 29.0104 2.49754 28.5313 1.93206 27.9688C1.36658 27.4063 0.958175 26.8438 0.70685 26.2812C0.476469 25.7396 0.350807 25.3125 0.329863 25C0.30892 24.7917 0.371751 24.6042 0.518357 24.4375C0.685906 24.2917 0.8744 24.2188 1.08384 24.2188H3.81699C4.02643 24.2188 4.19398 24.2604 4.31964 24.3438C4.4453 24.4479 4.55002 24.625 4.6338 24.875C4.75946 25.1458 4.92701 25.4375 5.13645 25.75C5.34588 26.0625 5.66004 26.3229 6.07891 26.5312C6.51873 26.7604 7.11563 26.875 7.8696 26.875C8.66546 26.875 9.33566 26.7604 9.8802 26.5312C10.4247 26.3021 10.8331 25.9167 11.1054 25.375C11.3986 24.8333 11.5452 24.0833 11.5452 23.125V21C11.0426 21.6042 10.3933 22.0938 9.59746 22.4688C8.82254 22.8438 7.85913 23.0312 6.70722 23.0312C5.57626 23.0312 4.60238 22.8542 3.78558 22.5C2.96877 22.125 2.2881 21.6146 1.74356 20.9688C1.19903 20.3021 0.780153 19.5208 0.486941 18.625C0.214673 17.7292 0.0575952 16.7396 0.0157078 15.6562C-0.00523594 15.0938 -0.00523594 14.5312 0.0157078 13.9688C0.0575952 12.9271 0.214673 11.9583 0.486941 11.0625C0.75921 10.1667 1.16761 9.38542 1.71215 8.71875C2.27763 8.03125 2.96877 7.5 3.78558 7.125C4.60238 6.75 5.57626 6.5625 6.70722 6.5625C7.90102 6.5625 8.90631 6.79167 9.72312 7.25C10.5399 7.6875 11.2101 8.23958 11.7337 8.90625V7.65625C11.7337 7.42708 11.807 7.23958 11.9536 7.09375C12.1002 6.94792 12.2783 6.875 12.4877 6.875H15.0324C15.2418 6.875 15.4198 6.94792 15.5664 7.09375C15.713 7.23958 15.7863 7.42708 15.7863 7.65625L15.8177 22.7188C15.8177 24.2188 15.535 25.5104 14.9695 26.5938C14.404 27.6771 13.5453 28.5104 12.3934 29.0938C11.2625 29.6979 9.80689 30 8.02668 30ZM7.8696 19.7188C8.72829 19.7188 9.41943 19.5312 9.94303 19.1562C10.4666 18.7812 10.8541 18.2917 11.1054 17.6875C11.3567 17.0833 11.5033 16.4688 11.5452 15.8438C11.5662 15.5729 11.5766 15.2292 11.5766 14.8125C11.5766 14.3958 11.5662 14.0625 11.5452 13.8125C11.5033 13.1667 11.3567 12.5521 11.1054 11.9687C10.8541 11.3646 10.4666 10.875 9.94303 10.5C9.41943 10.1042 8.72829 9.90625 7.8696 9.90625C7.01091 9.90625 6.31977 10.1042 5.79617 10.5C5.27258 10.875 4.89559 11.375 4.66521 12C4.45577 12.625 4.33011 13.3125 4.28823 14.0625C4.24634 14.5625 4.24634 15.0729 4.28823 15.5937C4.33011 16.3229 4.45577 17.0104 4.66521 17.6562C4.89559 18.2812 5.27258 18.7812 5.79617 19.1562C6.31977 19.5312 7.01091 19.7188 7.8696 19.7188Z" fill="#3E5656"/>
<path d="M20.7566 23.125C20.5472 23.125 20.3692 23.0521 20.2225 22.9062C20.0759 22.7604 20.0026 22.5833 20.0026 22.375V7.65625C20.0026 7.42708 20.0759 7.23958 20.2225 7.09375C20.3692 6.94792 20.5472 6.875 20.7566 6.875H23.3013C23.5107 6.875 23.6887 6.94792 23.8353 7.09375C24.0029 7.23958 24.0867 7.42708 24.0867 7.65625V8.9375C24.5684 8.27083 25.1862 7.76042 25.9402 7.40625C26.7151 7.05208 27.6052 6.875 28.6105 6.875H29.8985C30.1289 6.875 30.3069 6.94792 30.4326 7.09375C30.5792 7.23958 30.6525 7.41667 30.6525 7.625V9.875C30.6525 10.0833 30.5792 10.2604 30.4326 10.4062C30.3069 10.5521 30.1289 10.625 29.8985 10.625H27.4481C26.4428 10.625 25.6574 10.9062 25.092 11.4687C24.5474 12.0312 24.2752 12.8021 24.2752 13.7812V22.375C24.2752 22.5833 24.2019 22.7604 24.0552 22.9062C23.9086 23.0521 23.7201 23.125 23.4898 23.125H20.7566Z" fill="#3E5656"/>
<path d="M39.925 23.4375C37.6003 23.4375 35.7572 22.7708 34.3959 21.4375C33.0345 20.1042 32.3015 18.2083 32.1968 15.75C32.1758 15.5417 32.1654 15.2812 32.1654 14.9687C32.1654 14.6354 32.1758 14.375 32.1968 14.1875C32.2806 12.625 32.6366 11.2708 33.2649 10.125C33.9142 8.97917 34.8043 8.10417 35.9352 7.5C37.0662 6.875 38.3961 6.5625 39.925 6.5625C41.6215 6.5625 43.0456 6.91667 44.1975 7.625C45.3494 8.3125 46.2186 9.28125 46.805 10.5312C47.3914 11.7604 47.6847 13.1875 47.6847 14.8125V15.4688C47.6847 15.6771 47.6114 15.8542 47.4648 16C47.3181 16.1458 47.1297 16.2188 46.8993 16.2188H36.4693C36.4693 16.2188 36.4693 16.25 36.4693 16.3125C36.4693 16.375 36.4693 16.4271 36.4693 16.4688C36.4902 17.1979 36.6264 17.875 36.8777 18.5C37.15 19.1042 37.5374 19.5938 38.0401 19.9688C38.5637 20.3438 39.1815 20.5312 39.8936 20.5312C40.48 20.5312 40.9722 20.4479 41.3701 20.2812C41.7681 20.0938 42.0927 19.8854 42.344 19.6562C42.5953 19.4271 42.7734 19.2396 42.8781 19.0938C43.0666 18.8438 43.2132 18.6979 43.3179 18.6562C43.4436 18.5938 43.6216 18.5625 43.852 18.5625H46.5537C46.7631 18.5625 46.9307 18.625 47.0563 18.75C47.203 18.875 47.2658 19.0312 47.2448 19.2188C47.2239 19.5521 47.0459 19.9583 46.7108 20.4375C46.3966 20.9167 45.9359 21.3854 45.3285 21.8438C44.7211 22.3021 43.9567 22.6875 43.0352 23C42.1346 23.2917 41.0979 23.4375 39.925 23.4375ZM36.4693 13.5938H43.4121V13.5C43.4121 12.6875 43.276 11.9792 43.0037 11.375C42.7315 10.7708 42.3335 10.2917 41.8099 9.9375C41.2864 9.58333 40.658 9.40625 39.925 9.40625C39.192 9.40625 38.5637 9.58333 38.0401 9.9375C37.5165 10.2917 37.1186 10.7708 36.8463 11.375C36.595 11.9792 36.4693 12.6875 36.4693 13.5V13.5938Z" fill="#3E5656"/>
<path d="M58.0565 23.4375C55.7317 23.4375 53.8887 22.7708 52.5273 21.4375C51.166 20.1042 50.4329 18.2083 50.3282 15.75C50.3073 15.5417 50.2968 15.2812 50.2968 14.9687C50.2968 14.6354 50.3073 14.375 50.3282 14.1875C50.412 12.625 50.768 11.2708 51.3964 10.125C52.0456 8.97917 52.9357 8.10417 54.0667 7.5C55.1976 6.875 56.5276 6.5625 58.0565 6.5625C59.7529 6.5625 61.1771 6.91667 62.329 7.625C63.4809 8.3125 64.35 9.28125 64.9365 10.5312C65.5229 11.7604 65.8161 13.1875 65.8161 14.8125V15.4688C65.8161 15.6771 65.7428 15.8542 65.5962 16C65.4496 16.1458 65.2611 16.2188 65.0307 16.2188H54.6007C54.6007 16.2188 54.6007 16.25 54.6007 16.3125C54.6007 16.375 54.6007 16.4271 54.6007 16.4688C54.6217 17.1979 54.7578 17.875 55.0091 18.5C55.2814 19.1042 55.6689 19.5938 56.1715 19.9688C56.6951 20.3438 57.313 20.5312 58.025 20.5312C58.6115 20.5312 59.1036 20.4479 59.5016 20.2812C59.8995 20.0938 60.2241 19.8854 60.4755 19.6562C60.7268 19.4271 60.9048 19.2396 61.0095 19.0938C61.198 18.8438 61.3446 18.6979 61.4493 18.6562C61.575 18.5938 61.753 18.5625 61.9834 18.5625H64.6851C64.8946 18.5625 65.0621 18.625 65.1878 18.75C65.3344 18.875 65.3972 19.0312 65.3763 19.2188C65.3553 19.5521 65.1773 19.9583 64.8422 20.4375C64.5281 20.9167 64.0673 21.3854 63.4599 21.8438C62.8526 22.3021 62.0881 22.6875 61.1666 23C60.266 23.2917 59.2293 23.4375 58.0565 23.4375ZM54.6007 13.5938H61.5436V13.5C61.5436 12.6875 61.4075 11.9792 61.1352 11.375C60.8629 10.7708 60.465 10.2917 59.9414 9.9375C59.4178 9.58333 58.7895 9.40625 58.0565 9.40625C57.3234 9.40625 56.6951 9.58333 56.1715 9.9375C55.6479 10.2917 55.25 10.7708 54.9777 11.375C54.7264 11.9792 54.6007 12.6875 54.6007 13.5V13.5938Z" fill="#3E5656"/>
<path d="M69.9048 23.125C69.6954 23.125 69.5173 23.0521 69.3707 22.9062C69.2241 22.7604 69.1508 22.5833 69.1508 22.375V7.625C69.1508 7.41667 69.2241 7.23958 69.3707 7.09375C69.5173 6.94792 69.6954 6.875 69.9048 6.875H72.4809C72.6903 6.875 72.8683 6.94792 73.0149 7.09375C73.1615 7.23958 73.2348 7.41667 73.2348 7.625V8.90625C73.7794 8.23958 74.4705 7.6875 75.3083 7.25C76.167 6.79167 77.2246 6.5625 78.4812 6.5625C79.7588 6.5625 80.8688 6.85417 81.8113 7.4375C82.7538 8 83.4763 8.80208 83.979 9.84375C84.5026 10.8854 84.7644 12.1354 84.7644 13.5938V22.375C84.7644 22.5833 84.6911 22.7604 84.5444 22.9062C84.3978 23.0521 84.2198 23.125 84.0104 23.125H81.2458C81.0364 23.125 80.8584 23.0521 80.7117 22.9062C80.5651 22.7604 80.4918 22.5833 80.4918 22.375V13.7812C80.4918 12.5729 80.1882 11.625 79.5808 10.9375C78.9944 10.25 78.1357 9.90625 77.0047 9.90625C75.9156 9.90625 75.0465 10.25 74.3972 10.9375C73.748 11.625 73.4233 12.5729 73.4233 13.7812V22.375C73.4233 22.5833 73.35 22.7604 73.2034 22.9062C73.0568 23.0521 72.8788 23.125 72.6694 23.125H69.9048Z" fill="#3E5656"/>
<path d="M97.0648 23.125C96.8553 23.125 96.6773 23.0521 96.5307 22.9062C96.3841 22.7604 96.3108 22.5833 96.3108 22.375V2C96.3108 1.79167 96.3841 1.61458 96.5307 1.46875C96.6773 1.32292 96.8553 1.25 97.0648 1.25H99.9864C100.196 1.25 100.374 1.32292 100.52 1.46875C100.667 1.61458 100.74 1.79167 100.74 2V19.4062H110.699C110.93 19.4062 111.118 19.4792 111.265 19.625C111.411 19.7708 111.485 19.9583 111.485 20.1875V22.375C111.485 22.5833 111.411 22.7604 111.265 22.9062C111.118 23.0521 110.93 23.125 110.699 23.125H97.0648Z" fill="#3E5656"/>
<path d="M114.911 23.125C114.702 23.125 114.524 23.0521 114.377 22.9062C114.231 22.7604 114.157 22.5833 114.157 22.375V7.625C114.157 7.41667 114.231 7.23958 114.377 7.09375C114.524 6.94792 114.702 6.875 114.911 6.875H117.519C117.749 6.875 117.927 6.94792 118.053 7.09375C118.199 7.23958 118.273 7.41667 118.273 7.625V22.375C118.273 22.5833 118.199 22.7604 118.053 22.9062C117.927 23.0521 117.749 23.125 117.519 23.125H114.911ZM114.786 4.1875C114.555 4.1875 114.367 4.125 114.22 4C114.094 3.85417 114.032 3.66667 114.032 3.4375V1.1875C114.032 0.979166 114.094 0.802083 114.22 0.656249C114.367 0.510416 114.555 0.4375 114.786 0.4375H117.644C117.875 0.4375 118.063 0.510416 118.21 0.656249C118.357 0.802083 118.43 0.979166 118.43 1.1875V3.4375C118.43 3.66667 118.357 3.85417 118.21 4C118.063 4.125 117.875 4.1875 117.644 4.1875H114.786Z" fill="#3E5656"/>
<path d="M124.954 23.125C124.745 23.125 124.566 23.0521 124.42 22.9062C124.273 22.7604 124.2 22.5833 124.2 22.375V10.1875H121.655C121.446 10.1875 121.268 10.1146 121.121 9.96875C120.975 9.82292 120.901 9.64583 120.901 9.4375V7.625C120.901 7.41667 120.975 7.23958 121.121 7.09375C121.268 6.94792 121.446 6.875 121.655 6.875H124.2V5.59375C124.2 4.34375 124.43 3.3125 124.891 2.5C125.352 1.66667 126.033 1.04167 126.933 0.624999C127.834 0.208333 128.975 0 130.357 0H132.494C132.724 0 132.902 0.0729164 133.028 0.218749C133.174 0.364583 133.248 0.541667 133.248 0.75V2.5625C133.248 2.77083 133.174 2.94792 133.028 3.09375C132.902 3.23958 132.724 3.3125 132.494 3.3125H130.483C129.645 3.3125 129.069 3.52083 128.755 3.9375C128.441 4.35417 128.284 4.95833 128.284 5.75V6.875H132.18C132.41 6.875 132.588 6.94792 132.714 7.09375C132.86 7.23958 132.934 7.41667 132.934 7.625V9.4375C132.934 9.64583 132.86 9.82292 132.714 9.96875C132.588 10.1146 132.41 10.1875 132.18 10.1875H128.284V22.375C128.284 22.5833 128.211 22.7604 128.064 22.9062C127.917 23.0521 127.739 23.125 127.53 23.125H124.954Z" fill="#3E5656"/>
<path d="M142.24 23.4375C139.916 23.4375 138.073 22.7708 136.711 21.4375C135.35 20.1042 134.617 18.2083 134.512 15.75C134.491 15.5417 134.481 15.2812 134.481 14.9687C134.481 14.6354 134.491 14.375 134.512 14.1875C134.596 12.625 134.952 11.2708 135.58 10.125C136.23 8.97917 137.12 8.10417 138.251 7.5C139.382 6.875 140.711 6.5625 142.24 6.5625C143.937 6.5625 145.361 6.91667 146.513 7.625C147.665 8.3125 148.534 9.28125 149.12 10.5312C149.707 11.7604 150 13.1875 150 14.8125V15.4688C150 15.6771 149.927 15.8542 149.78 16C149.633 16.1458 149.445 16.2188 149.215 16.2188H138.785C138.785 16.2188 138.785 16.25 138.785 16.3125C138.785 16.375 138.785 16.4271 138.785 16.4688C138.806 17.1979 138.942 17.875 139.193 18.5C139.465 19.1042 139.853 19.5938 140.355 19.9688C140.879 20.3438 141.497 20.5312 142.209 20.5312C142.795 20.5312 143.288 20.4479 143.685 20.2812C144.083 20.0938 144.408 19.8854 144.659 19.6562C144.911 19.4271 145.089 19.2396 145.193 19.0938C145.382 18.8438 145.529 18.6979 145.633 18.6562C145.759 18.5938 145.937 18.5625 146.167 18.5625H148.869C149.078 18.5625 149.246 18.625 149.372 18.75C149.518 18.875 149.581 19.0312 149.56 19.2188C149.539 19.5521 149.361 19.9583 149.026 20.4375C148.712 20.9167 148.251 21.3854 147.644 21.8438C147.036 22.3021 146.272 22.6875 145.35 23C144.45 23.2917 143.413 23.4375 142.24 23.4375ZM138.785 13.5938H145.727V13.5C145.727 12.6875 145.591 11.9792 145.319 11.375C145.047 10.7708 144.649 10.2917 144.125 9.9375C143.602 9.58333 142.973 9.40625 142.24 9.40625C141.507 9.40625 140.879 9.58333 140.355 9.9375C139.832 10.2917 139.434 10.7708 139.162 11.375C138.91 11.9792 138.785 12.6875 138.785 13.5V13.5938Z" fill="#3E5656"/>
</svg>
