<svg width="280" height="64" viewBox="0 0 280 64" fill="none" xmlns="http://www.w3.org/2000/svg">
<path d="M12.5 40.15C9.4 40.15 7.7 37.25 7.7 32.65C7.7 28 9.55 25.1 12.65 25.1C15.7 25.1 17.55 27.95 17.55 32.5C17.55 37.2 15.7 40.15 12.5 40.15ZM17.15 52.35C20.75 52.35 21.95 54.25 21.95 56.55C21.95 59.6 18.7 61.9 12.25 61.9C7.7 61.9 4.85 59.95 4.85 56.25C4.85 54.5 5.4 53.3 6.55 51.95C7.8 52.25 9.05 52.35 11.35 52.35H17.15ZM27.65 24L26.8 23.45L20.45 25.8C18.65 24.3 16 23.45 12.65 23.45C5.6 23.45 1.75 27.15 1.75 32.55C1.75 36 3.25 38.75 6.05 40.35C3.15 42.9 2 44.7 2 47C2 49.3 3.35 50.65 5.6 51.5C2.1 53 0.5 54.95 0.5 57.25C0.5 61 3.7 64 12.25 64C22.1 64 27.25 59.4 27.25 54.15C27.25 49.65 24.35 46.8 17.2 46.8H9.85C7.05 46.8 6.05 45.85 6.05 44.05C6.05 42.9 6.4 41.95 7.15 40.9C8.65 41.5 10.45 41.85 12.55 41.85C19.55 41.85 23.45 38 23.45 32.55C23.45 30.5 22.9 28.65 21.8 27.2L27.65 27.65V24Z" fill="black"/>
<path d="M43.3887 23.95L42.6887 23.5L33.0887 26.55V27.8L37.0387 28.2C37.1887 30.6 37.2387 32.4 37.2387 35.65V39.25C37.2387 42 37.1887 46.15 37.1387 49L33.4887 49.45V51H48.5387V49.45L43.9387 48.85C43.8887 46 43.8387 41.95 43.8387 39.25V34.8C44.8887 31.3 46.2387 29.1 48.3387 27.45L48.8887 28.05C50.1387 29.5 51.1887 30.45 52.8387 30.45C55.1887 30.45 56.1387 28.9 56.2887 26.65C55.6887 24.3 53.8887 23.45 51.7887 23.45C48.7887 23.45 45.4387 26.1 43.8387 30.9L43.3887 23.95Z" fill="black"/>
<path d="M67.6133 35.65C67.9133 28.35 70.6633 25.3 73.8133 25.3C76.8633 25.3 79.0133 27.9 79.0133 31.95C79.0133 34.5 78.4633 35.65 76.1633 35.65H67.6133ZM84.9133 37.5C85.1633 36.65 85.2633 35.7 85.2633 34.4C85.2633 28.1 81.1133 23.45 74.2633 23.45C67.2633 23.45 60.6633 28.6 60.6633 37.6C60.6633 46.7 66.3633 51.8 74.2133 51.8C79.1633 51.8 82.9633 49.45 84.9633 45.35L83.9633 44.65C82.2133 47 80.0633 48.5 76.4633 48.5C71.6133 48.5 67.8133 45.15 67.6133 37.5H84.9133Z" fill="black"/>
<path d="M99.2754 35.65C99.5754 28.35 102.325 25.3 105.475 25.3C108.525 25.3 110.675 27.9 110.675 31.95C110.675 34.5 110.125 35.65 107.825 35.65H99.2754ZM116.575 37.5C116.825 36.65 116.925 35.7 116.925 34.4C116.925 28.1 112.775 23.45 105.925 23.45C98.9254 23.45 92.3254 28.6 92.3254 37.6C92.3254 46.7 98.0254 51.8 105.875 51.8C110.825 51.8 114.625 49.45 116.625 45.35L115.625 44.65C113.875 47 111.725 48.5 108.125 48.5C103.275 48.5 99.4754 45.15 99.2754 37.5H116.575Z" fill="black"/>
<path d="M151.288 49.05C151.238 46.2 151.188 42.1 151.188 39.25V33.15C151.188 26.45 148.238 23.45 143.538 23.45C140.288 23.45 137.188 24.85 134.038 28.5L133.688 23.95L132.988 23.5L123.387 26.55V27.8L127.338 28.2C127.488 30.6 127.537 32.4 127.537 35.65V39.25C127.537 42 127.488 46.15 127.438 49L123.787 49.45V51H137.488V49.45L134.238 49.05C134.188 46.2 134.137 42 134.137 39.25V30.25C136.587 28 138.837 27 140.688 27C143.387 27 144.637 28.5 144.637 32.85V39.25C144.637 42.1 144.588 46.2 144.488 49L140.988 49.45V51H154.688V49.45L151.288 49.05Z" fill="black"/>
<path d="M202.318 40.2L200.168 48.95H188.768C188.618 43.9 188.618 38.85 188.618 34.2V30.85C188.618 26.15 188.618 21.15 188.768 16.2L193.768 15.7V13.9H176.818V15.7L181.568 16.15C181.668 21.2 181.668 26.25 181.668 31.25V34.6C181.668 38.9 181.668 43.85 181.568 48.8L176.868 49.25L176.818 51H204.918L205.018 40.2H202.318Z" fill="black"/>
<path d="M218.79 17.9C220.94 17.9 222.74 16.35 222.74 14.2C222.74 11.95 220.94 10.45 218.79 10.45C216.64 10.45 214.84 11.95 214.84 14.2C214.84 16.35 216.64 17.9 218.79 17.9ZM222.34 49.05C222.29 46.2 222.24 42 222.24 39.25V31.75L222.34 23.95L221.64 23.5L211.49 26.35V27.7L215.54 28.1C215.64 30.6 215.69 32.5 215.69 35.7V39.25C215.69 42 215.64 46.15 215.59 49L211.94 49.45V51H225.69V49.45L222.34 49.05Z" fill="black"/>
<path d="M231.775 24.7V26.35H236.025V39.25C236.025 42.55 235.975 45.8 235.875 49L232.025 49.45V51H247.425V49.45L242.675 48.9C242.625 45.7 242.575 42.5 242.575 39.25V26.35H249.425V24.25H242.525C242.325 18.55 242.875 15.15 244.425 12.85C244.775 12.25 245.325 11.75 245.975 11.4L247.025 12.8C248.375 15 249.725 15.8 251.425 15.8C253.525 15.8 254.725 14.55 254.775 12.85C254.175 10.45 251.675 9.5 248.875 9.5C246.025 9.5 243.075 10.4 240.425 12.95C238.125 15.2 236.575 18.5 236.075 24.2L231.775 24.7Z" fill="black"/>
<path d="M261.611 35.65C261.911 28.35 264.661 25.3 267.811 25.3C270.861 25.3 273.011 27.9 273.011 31.95C273.011 34.5 272.461 35.65 270.161 35.65H261.611ZM278.911 37.5C279.161 36.65 279.261 35.7 279.261 34.4C279.261 28.1 275.111 23.45 268.261 23.45C261.261 23.45 254.661 28.6 254.661 37.6C254.661 46.7 260.361 51.8 268.211 51.8C273.161 51.8 276.961 49.45 278.961 45.35L277.961 44.65C276.211 47 274.061 48.5 270.461 48.5C265.611 48.5 261.811 45.15 261.611 37.5H278.911Z" fill="black"/>
<path d="M223 13.5C223 15.9853 220.985 18 218.5 18C216.015 18 214 15.9853 214 13.5C214 11.0147 216.015 9 218.5 9C220.985 9 223 11.0147 223 13.5Z" fill="black"/>
<path d="M228 4.5C228 6.98528 225.985 9 223.5 9C221.015 9 219 6.98528 219 4.5C219 2.01472 221.015 0 223.5 0C225.985 0 228 2.01472 228 4.5Z" fill="black"/>
<path d="M218 4.5C218 6.98528 215.985 9 213.5 9C211.015 9 209 6.98528 209 4.5C209 2.01472 211.015 0 213.5 0C215.985 0 218 2.01472 218 4.5Z" fill="black"/>
</svg>
