<svg width="279" height="64" viewBox="0 0 279 64" fill="none" xmlns="http://www.w3.org/2000/svg">
<path d="M12 40.15C8.9 40.15 7.2 37.25 7.2 32.65C7.2 28 9.05 25.1 12.15 25.1C15.2 25.1 17.05 27.95 17.05 32.5C17.05 37.2 15.2 40.15 12 40.15ZM16.65 52.35C20.25 52.35 21.45 54.25 21.45 56.55C21.45 59.6 18.2 61.9 11.75 61.9C7.2 61.9 4.35 59.95 4.35 56.25C4.35 54.5 4.9 53.3 6.05 51.95C7.3 52.25 8.55 52.35 10.85 52.35H16.65ZM27.15 24L26.3 23.45L19.95 25.8C18.15 24.3 15.5 23.45 12.15 23.45C5.1 23.45 1.25 27.15 1.25 32.55C1.25 36 2.75 38.75 5.55 40.35C2.65 42.9 1.5 44.7 1.5 47C1.5 49.3 2.85 50.65 5.1 51.5C1.6 53 0 54.95 0 57.25C0 61 3.2 64 11.75 64C21.6 64 26.75 59.4 26.75 54.15C26.75 49.65 23.85 46.8 16.7 46.8H9.35C6.55 46.8 5.55 45.85 5.55 44.05C5.55 42.9 5.9 41.95 6.65 40.9C8.15 41.5 9.95 41.85 12.05 41.85C19.05 41.85 22.95 38 22.95 32.55C22.95 30.5 22.4 28.65 21.3 27.2L27.15 27.65V24Z" fill="white"/>
<path d="M42.8887 23.95L42.1887 23.5L32.5887 26.55V27.8L36.5387 28.2C36.6887 30.6 36.7387 32.4 36.7387 35.65V39.25C36.7387 42 36.6887 46.15 36.6387 49L32.9887 49.45V51H48.0387V49.45L43.4387 48.85C43.3887 46 43.3387 41.95 43.3387 39.25V34.8C44.3887 31.3 45.7387 29.1 47.8387 27.45L48.3887 28.05C49.6387 29.5 50.6887 30.45 52.3387 30.45C54.6887 30.45 55.6387 28.9 55.7887 26.65C55.1887 24.3 53.3887 23.45 51.2887 23.45C48.2887 23.45 44.9387 26.1 43.3387 30.9L42.8887 23.95Z" fill="white"/>
<path d="M67.1133 35.65C67.4133 28.35 70.1633 25.3 73.3133 25.3C76.3633 25.3 78.5133 27.9 78.5133 31.95C78.5133 34.5 77.9633 35.65 75.6633 35.65H67.1133ZM84.4133 37.5C84.6633 36.65 84.7633 35.7 84.7633 34.4C84.7633 28.1 80.6133 23.45 73.7633 23.45C66.7633 23.45 60.1633 28.6 60.1633 37.6C60.1633 46.7 65.8633 51.8 73.7133 51.8C78.6633 51.8 82.4633 49.45 84.4633 45.35L83.4633 44.65C81.7133 47 79.5633 48.5 75.9633 48.5C71.1133 48.5 67.3133 45.15 67.1133 37.5H84.4133Z" fill="white"/>
<path d="M98.7754 35.65C99.0754 28.35 101.825 25.3 104.975 25.3C108.025 25.3 110.175 27.9 110.175 31.95C110.175 34.5 109.625 35.65 107.325 35.65H98.7754ZM116.075 37.5C116.325 36.65 116.425 35.7 116.425 34.4C116.425 28.1 112.275 23.45 105.425 23.45C98.4254 23.45 91.8254 28.6 91.8254 37.6C91.8254 46.7 97.5254 51.8 105.375 51.8C110.325 51.8 114.125 49.45 116.125 45.35L115.125 44.65C113.375 47 111.225 48.5 107.625 48.5C102.775 48.5 98.9754 45.15 98.7754 37.5H116.075Z" fill="white"/>
<path d="M150.788 49.05C150.738 46.2 150.688 42.1 150.688 39.25V33.15C150.688 26.45 147.738 23.45 143.038 23.45C139.788 23.45 136.688 24.85 133.538 28.5L133.188 23.95L132.488 23.5L122.887 26.55V27.8L126.838 28.2C126.988 30.6 127.037 32.4 127.037 35.65V39.25C127.037 42 126.988 46.15 126.938 49L123.287 49.45V51H136.988V49.45L133.738 49.05C133.688 46.2 133.637 42 133.637 39.25V30.25C136.087 28 138.337 27 140.188 27C142.887 27 144.137 28.5 144.137 32.85V39.25C144.137 42.1 144.088 46.2 143.988 49L140.488 49.45V51H154.188V49.45L150.788 49.05Z" fill="white"/>
<path d="M201.818 40.2L199.668 48.95H188.268C188.118 43.9 188.118 38.85 188.118 34.2V30.85C188.118 26.15 188.118 21.15 188.268 16.2L193.268 15.7V13.9H176.318V15.7L181.068 16.15C181.168 21.2 181.168 26.25 181.168 31.25V34.6C181.168 38.9 181.168 43.85 181.068 48.8L176.368 49.25L176.318 51H204.418L204.518 40.2H201.818Z" fill="white"/>
<path d="M218.29 17.9C220.44 17.9 222.24 16.35 222.24 14.2C222.24 11.95 220.44 10.45 218.29 10.45C216.14 10.45 214.34 11.95 214.34 14.2C214.34 16.35 216.14 17.9 218.29 17.9ZM221.84 49.05C221.79 46.2 221.74 42 221.74 39.25V31.75L221.84 23.95L221.14 23.5L210.99 26.35V27.7L215.04 28.1C215.14 30.6 215.19 32.5 215.19 35.7V39.25C215.19 42 215.14 46.15 215.09 49L211.44 49.45V51H225.19V49.45L221.84 49.05Z" fill="white"/>
<path d="M231.275 24.7V26.35H235.525V39.25C235.525 42.55 235.475 45.8 235.375 49L231.525 49.45V51H246.925V49.45L242.175 48.9C242.125 45.7 242.075 42.5 242.075 39.25V26.35H248.925V24.25H242.025C241.825 18.55 242.375 15.15 243.925 12.85C244.275 12.25 244.825 11.75 245.475 11.4L246.525 12.8C247.875 15 249.225 15.8 250.925 15.8C253.025 15.8 254.225 14.55 254.275 12.85C253.675 10.45 251.175 9.5 248.375 9.5C245.525 9.5 242.575 10.4 239.925 12.95C237.625 15.2 236.075 18.5 235.575 24.2L231.275 24.7Z" fill="white"/>
<path d="M261.111 35.65C261.411 28.35 264.161 25.3 267.311 25.3C270.361 25.3 272.511 27.9 272.511 31.95C272.511 34.5 271.961 35.65 269.661 35.65H261.111ZM278.411 37.5C278.661 36.65 278.761 35.7 278.761 34.4C278.761 28.1 274.611 23.45 267.761 23.45C260.761 23.45 254.161 28.6 254.161 37.6C254.161 46.7 259.861 51.8 267.711 51.8C272.661 51.8 276.461 49.45 278.461 45.35L277.461 44.65C275.711 47 273.561 48.5 269.961 48.5C265.111 48.5 261.311 45.15 261.111 37.5H278.411Z" fill="white"/>
<path d="M222.5 13.5C222.5 15.9853 220.485 18 218 18C215.515 18 213.5 15.9853 213.5 13.5C213.5 11.0147 215.515 9 218 9C220.485 9 222.5 11.0147 222.5 13.5Z" fill="white"/>
<path d="M227.5 4.5C227.5 6.98528 225.485 9 223 9C220.515 9 218.5 6.98528 218.5 4.5C218.5 2.01472 220.515 0 223 0C225.485 0 227.5 2.01472 227.5 4.5Z" fill="white"/>
<path d="M217.5 4.5C217.5 6.98528 215.485 9 213 9C210.515 9 208.5 6.98528 208.5 4.5C208.5 2.01472 210.515 0 213 0C215.485 0 217.5 2.01472 217.5 4.5Z" fill="white"/>
</svg>
