<svg width="32" height="32" viewBox="0 0 32 32" fill="none" xmlns="http://www.w3.org/2000/svg">
<path d="M20.3918 5.93125C19.4902 5.46375 18.933 4.59375 18.9344 3.65625V3.6525C18.9358 2.1875 17.6212 1 16 1C14.3788 1 13.0642 2.1875 13.0642 3.6525V3.65625C13.0656 4.595 12.5098 5.46375 11.6068 5.93125C5.073 9.32125 8.8278 20.575 2 22.5637V24.75H30V22.5637C23.1722 20.575 26.927 9.32125 20.3918 5.93125ZM16 2.25C16.7728 2.25 17.4 2.81125 17.4 3.5C17.4 4.19 16.7728 4.75 16 4.75C15.2272 4.75 14.6 4.19 14.6 3.5C14.6 2.81125 15.2272 2.25 16 2.25ZM20.2 27.25C20.2 29.2475 18.2512 31 16.0406 31C13.83 31 11.8 29.2475 11.8 27.25H20.2Z" fill="#47885E"/>
</svg>
