<svg width="24" height="24" viewBox="0 0 24 24" fill="none" xmlns="http://www.w3.org/2000/svg">
<path d="M3.5 17.075V19.5H20.5V17.075H3.5ZM3.5 6H6.625C6.54167 5.85 6.475 5.6625 6.425 5.4375C6.375 5.2125 6.35 5.00833 6.35 4.825C6.35 4.04167 6.625 3.375 7.175 2.825C7.725 2.275 8.38333 2 9.15 2C9.66667 2 10.1417 2.12917 10.575 2.3875C11.0083 2.64583 11.35 2.975 11.6 3.375L12.025 4.025L12.425 3.375C12.6917 2.95833 13.0333 2.625 13.45 2.375C13.8667 2.125 14.3167 2 14.8 2C15.6 2 16.275 2.27083 16.825 2.8125C17.375 3.35417 17.65 4.025 17.65 4.825C17.65 5.00833 17.6292 5.19167 17.5875 5.375C17.5458 5.55833 17.4833 5.76667 17.4 6H20.5C20.9 6 21.25 6.15 21.55 6.45C21.85 6.75 22 7.1 22 7.5V19.5C22 19.9 21.85 20.25 21.55 20.55C21.25 20.85 20.9 21 20.5 21H3.5C3.1 21 2.75 20.85 2.45 20.55C2.15 20.25 2 19.9 2 19.5V7.5C2 7.1 2.15 6.75 2.45 6.45C2.75 6.15 3.1 6 3.5 6ZM3.5 14.4H20.5V7.5H14.275L16.775 10.975L15.575 11.875L12 6.925L8.425 11.875L7.225 10.975L9.725 7.5H3.5V14.4ZM9.175 6.15C9.54167 6.15 9.85417 6.02083 10.1125 5.7625C10.3708 5.50417 10.5 5.19167 10.5 4.825C10.5 4.45833 10.3708 4.14583 10.1125 3.8875C9.85417 3.62917 9.54167 3.5 9.175 3.5C8.80833 3.5 8.49583 3.62917 8.2375 3.8875C7.97917 4.14583 7.85 4.45833 7.85 4.825C7.85 5.19167 7.97917 5.50417 8.2375 5.7625C8.49583 6.02083 8.80833 6.15 9.175 6.15ZM14.8 6.15C15.1833 6.15 15.5042 6.02083 15.7625 5.7625C16.0208 5.50417 16.15 5.19167 16.15 4.825C16.15 4.45833 16.0208 4.14583 15.7625 3.8875C15.5042 3.62917 15.1833 3.5 14.8 3.5C14.45 3.5 14.1458 3.62917 13.8875 3.8875C13.6292 4.14583 13.5 4.45833 13.5 4.825C13.5 5.19167 13.6292 5.50417 13.8875 5.7625C14.1458 6.02083 14.45 6.15 14.8 6.15Z" fill="#3E5656"/>
</svg>
