<svg width="32" height="32" viewBox="0 0 32 32" fill="none" xmlns="http://www.w3.org/2000/svg">
<path fill-rule="evenodd" clip-rule="evenodd" d="M17.2307 30.7689H14.7692V24.46C13.7772 24.204 12.907 23.6465 12.2596 22.892C11.5187 23.2083 10.7027 23.3843 9.84611 23.3843C6.44918 23.3843 3.69226 20.6274 3.69226 17.2305C3.69226 15.4803 4.42457 13.8988 5.59995 12.7788C5.17165 12.1092 4.92303 11.3142 4.92303 10.4612C4.92303 8.14985 6.74826 6.26062 9.03503 6.15847C10.048 3.28832 12.7852 1.23047 16 1.23047C19.2147 1.23047 21.952 3.28832 22.9649 6.15847C25.2516 6.26062 27.0769 8.14985 27.0769 10.4612C27.0769 11.3142 26.8283 12.1092 26.4 12.7788C27.5753 13.8988 28.3076 15.4803 28.3076 17.2305C28.3076 20.6274 25.5507 23.3843 22.1538 23.3843C21.2972 23.3843 20.4812 23.2083 19.7403 22.892C19.0929 23.6465 18.2227 24.204 17.2307 24.46V30.7689Z" fill="#47885E"/>
</svg>
