<svg width="24" height="24" viewBox="0 0 24 24" fill="none" xmlns="http://www.w3.org/2000/svg">
<path d="M12 20.975L10.975 20.05C8.25833 17.5667 6.08333 15.4 4.45 13.55C2.81667 11.7 2 9.82499 2 7.92499C2 6.42499 2.50417 5.17083 3.5125 4.16249C4.52083 3.15416 5.76667 2.64999 7.25 2.64999C8.1 2.64999 8.94167 2.85416 9.775 3.26249C10.6083 3.67083 11.35 4.34166 12 5.27499C12.7333 4.34166 13.4917 3.67083 14.275 3.26249C15.0583 2.85416 15.8833 2.64999 16.75 2.64999C18.2333 2.64999 19.4792 3.15416 20.4875 4.16249C21.4958 5.17083 22 6.42499 22 7.92499C22 9.82499 21.1833 11.7 19.55 13.55C17.9167 15.4 15.7417 17.5667 13.025 20.05L12 20.975ZM12 19C14.5333 16.6667 16.5833 14.6417 18.15 12.925C19.7167 11.2083 20.5 9.54166 20.5 7.92499C20.5 6.82499 20.1458 5.92083 19.4375 5.21249C18.7292 4.50416 17.8333 4.14999 16.75 4.14999C15.9167 4.14999 15.1333 4.40833 14.4 4.92499C13.6667 5.44166 13.0667 6.18333 12.6 7.14999H11.375C10.925 6.18333 10.3292 5.44166 9.5875 4.92499C8.84583 4.40833 8.06667 4.14999 7.25 4.14999C6.15 4.14999 5.25 4.50416 4.55 5.21249C3.85 5.92083 3.5 6.82499 3.5 7.92499C3.5 9.54166 4.28333 11.2083 5.85 12.925C7.41667 14.6417 9.46667 16.6667 12 19Z" fill="#3E5656"/>
<path d="M5.5 13.5C4.0929 12.7038 3 10.1063 3 8.5C3 6.01472 4.23858 3.5 7 3.5C8.6356 3.5 11.0878 4.70681 12 5.79956C12.9122 4.70681 14.8644 3.5 16.5 3.5C19.2614 3.5 21 6.01472 21 8.5C21 10.1063 20.4071 12.2038 19 13L12 20L5.5 13.5Z" fill="#3E5656"/>
</svg>
