<svg width="24" height="24" viewBox="0 0 24 24" fill="none" xmlns="http://www.w3.org/2000/svg">
<path d="M12.0019 21.5341C17.5199 21.5341 21.9999 17.0541 21.9999 11.5361C21.9999 6.01806 17.5199 1.53906 12.0019 1.53906C6.48488 1.53906 2.00488 6.01806 2.00488 11.5361C2.00488 17.0541 6.48488 21.5341 12.0019 21.5341ZM12.0019 13.5341C11.5879 13.5341 11.2519 13.1981 11.2519 12.7841V7.28406C11.2519 6.87006 11.5879 6.53406 12.0019 6.53406C12.4159 6.53406 12.7519 6.87006 12.7519 7.28406V12.7841C12.7519 13.1981 12.4159 13.5341 12.0019 13.5341ZM11.9999 16.5341C11.4479 16.5341 10.9999 16.0861 10.9999 15.5341C10.9999 14.9821 11.4479 14.5341 11.9999 14.5341C12.5519 14.5341 12.9999 14.9821 12.9999 15.5341C12.9999 16.0861 12.5519 16.5341 11.9999 16.5341Z" fill="#3E5656"/>
</svg>
